<mxfile host="app.diagrams.net" agent="Mozilla/5.0 (X11; Ubuntu; Linux x86_64; rv:135.0) Gecko/20100101 Firefox/135.0" version="26.0.16">
  <diagram id="C5RBs43oDa-KdzZeNtuy" name="Page-1">
    <mxGraphModel dx="862" dy="961" grid="1" gridSize="10" guides="1" tooltips="1" connect="1" arrows="1" fold="1" page="1" pageScale="1" pageWidth="827" pageHeight="1169" math="0" shadow="0">
      <root>
        <mxCell id="WIyWlLk6GJQsqaUBKTNV-0" />
        <mxCell id="WIyWlLk6GJQsqaUBKTNV-1" parent="WIyWlLk6GJQsqaUBKTNV-0" />
        <mxCell id="G2BBgnJq1ysjmW8_Zyoc-1" style="edgeStyle=orthogonalEdgeStyle;rounded=0;orthogonalLoop=1;jettySize=auto;html=1;entryX=0.5;entryY=0;entryDx=0;entryDy=0;" edge="1" parent="WIyWlLk6GJQsqaUBKTNV-1" source="G2BBgnJq1ysjmW8_Zyoc-2" target="G2BBgnJq1ysjmW8_Zyoc-4">
          <mxGeometry relative="1" as="geometry" />
        </mxCell>
        <mxCell id="G2BBgnJq1ysjmW8_Zyoc-2" value="&lt;font style=&quot;font-size: 12px;&quot;&gt;Create copy of solution&lt;/font&gt;" style="rounded=1;whiteSpace=wrap;html=1;fontSize=12;glass=0;strokeWidth=1;shadow=0;fillColor=none;" vertex="1" parent="WIyWlLk6GJQsqaUBKTNV-1">
          <mxGeometry x="319" y="50" width="138.5" height="30" as="geometry" />
        </mxCell>
        <mxCell id="G2BBgnJq1ysjmW8_Zyoc-3" style="edgeStyle=orthogonalEdgeStyle;rounded=0;orthogonalLoop=1;jettySize=auto;html=1;entryX=0.5;entryY=0;entryDx=0;entryDy=0;" edge="1" parent="WIyWlLk6GJQsqaUBKTNV-1" source="G2BBgnJq1ysjmW8_Zyoc-4">
          <mxGeometry relative="1" as="geometry">
            <mxPoint x="388.2449999999999" y="180" as="targetPoint" />
          </mxGeometry>
        </mxCell>
        <mxCell id="G2BBgnJq1ysjmW8_Zyoc-4" value="Loop over routes" style="rounded=1;whiteSpace=wrap;html=1;fillColor=none;" vertex="1" parent="WIyWlLk6GJQsqaUBKTNV-1">
          <mxGeometry x="309.07" y="110" width="158.37" height="40" as="geometry" />
        </mxCell>
        <mxCell id="G2BBgnJq1ysjmW8_Zyoc-43" style="edgeStyle=orthogonalEdgeStyle;rounded=0;orthogonalLoop=1;jettySize=auto;html=1;entryX=0.5;entryY=0;entryDx=0;entryDy=0;" edge="1" parent="WIyWlLk6GJQsqaUBKTNV-1" source="G2BBgnJq1ysjmW8_Zyoc-12" target="G2BBgnJq1ysjmW8_Zyoc-42">
          <mxGeometry relative="1" as="geometry" />
        </mxCell>
        <mxCell id="G2BBgnJq1ysjmW8_Zyoc-12" value="Loop over nodes in current route" style="rounded=1;whiteSpace=wrap;html=1;fillColor=none;" vertex="1" parent="WIyWlLk6GJQsqaUBKTNV-1">
          <mxGeometry x="270" y="182" width="240" height="40" as="geometry" />
        </mxCell>
        <mxCell id="G2BBgnJq1ysjmW8_Zyoc-17" style="edgeStyle=orthogonalEdgeStyle;rounded=0;orthogonalLoop=1;jettySize=auto;html=1;exitX=0.5;exitY=1;exitDx=0;exitDy=0;entryX=0.5;entryY=0;entryDx=0;entryDy=0;" edge="1" parent="WIyWlLk6GJQsqaUBKTNV-1" source="G2BBgnJq1ysjmW8_Zyoc-18" target="G2BBgnJq1ysjmW8_Zyoc-21">
          <mxGeometry relative="1" as="geometry" />
        </mxCell>
        <mxCell id="G2BBgnJq1ysjmW8_Zyoc-39" style="edgeStyle=orthogonalEdgeStyle;rounded=0;orthogonalLoop=1;jettySize=auto;html=1;exitX=1;exitY=0.5;exitDx=0;exitDy=0;entryX=1;entryY=0.5;entryDx=0;entryDy=0;" edge="1" parent="WIyWlLk6GJQsqaUBKTNV-1" source="G2BBgnJq1ysjmW8_Zyoc-18" target="G2BBgnJq1ysjmW8_Zyoc-12">
          <mxGeometry relative="1" as="geometry">
            <Array as="points">
              <mxPoint x="550" y="466" />
              <mxPoint x="550" y="202" />
            </Array>
          </mxGeometry>
        </mxCell>
        <mxCell id="G2BBgnJq1ysjmW8_Zyoc-18" value="&lt;div&gt;Finished &lt;br&gt;&lt;/div&gt;&lt;div&gt;nodes of&lt;/div&gt;&lt;div&gt;route?&lt;/div&gt;" style="rhombus;whiteSpace=wrap;html=1;fillColor=none;" vertex="1" parent="WIyWlLk6GJQsqaUBKTNV-1">
          <mxGeometry x="345.13" y="421" width="90" height="90" as="geometry" />
        </mxCell>
        <mxCell id="G2BBgnJq1ysjmW8_Zyoc-19" style="edgeStyle=orthogonalEdgeStyle;rounded=0;orthogonalLoop=1;jettySize=auto;html=1;exitX=1;exitY=0.5;exitDx=0;exitDy=0;entryX=1;entryY=0.5;entryDx=0;entryDy=0;" edge="1" parent="WIyWlLk6GJQsqaUBKTNV-1" source="G2BBgnJq1ysjmW8_Zyoc-21" target="G2BBgnJq1ysjmW8_Zyoc-4">
          <mxGeometry relative="1" as="geometry">
            <Array as="points">
              <mxPoint x="580" y="585" />
              <mxPoint x="580" y="130" />
            </Array>
          </mxGeometry>
        </mxCell>
        <mxCell id="G2BBgnJq1ysjmW8_Zyoc-54" style="edgeStyle=orthogonalEdgeStyle;rounded=0;orthogonalLoop=1;jettySize=auto;html=1;entryX=0.5;entryY=0;entryDx=0;entryDy=0;" edge="1" parent="WIyWlLk6GJQsqaUBKTNV-1" source="G2BBgnJq1ysjmW8_Zyoc-21" target="G2BBgnJq1ysjmW8_Zyoc-53">
          <mxGeometry relative="1" as="geometry" />
        </mxCell>
        <mxCell id="G2BBgnJq1ysjmW8_Zyoc-21" value="&lt;div&gt;Checked&lt;/div&gt;&lt;div&gt;all routes?&lt;/div&gt;" style="rhombus;whiteSpace=wrap;html=1;fillColor=none;" vertex="1" parent="WIyWlLk6GJQsqaUBKTNV-1">
          <mxGeometry x="345" y="541" width="90" height="87" as="geometry" />
        </mxCell>
        <mxCell id="G2BBgnJq1ysjmW8_Zyoc-22" value="No" style="text;html=1;align=center;verticalAlign=middle;resizable=0;points=[];autosize=1;strokeColor=none;fillColor=none;" vertex="1" parent="WIyWlLk6GJQsqaUBKTNV-1">
          <mxGeometry x="425.85" y="441" width="40" height="30" as="geometry" />
        </mxCell>
        <mxCell id="G2BBgnJq1ysjmW8_Zyoc-23" value="Yes" style="text;html=1;align=center;verticalAlign=middle;resizable=0;points=[];autosize=1;strokeColor=none;fillColor=none;" vertex="1" parent="WIyWlLk6GJQsqaUBKTNV-1">
          <mxGeometry x="396" y="501" width="40" height="30" as="geometry" />
        </mxCell>
        <mxCell id="G2BBgnJq1ysjmW8_Zyoc-24" value="No" style="text;html=1;align=center;verticalAlign=middle;resizable=0;points=[];autosize=1;strokeColor=none;fillColor=none;" vertex="1" parent="WIyWlLk6GJQsqaUBKTNV-1">
          <mxGeometry x="424.85" y="558" width="40" height="30" as="geometry" />
        </mxCell>
        <mxCell id="G2BBgnJq1ysjmW8_Zyoc-25" value="Yes" style="text;html=1;align=center;verticalAlign=middle;resizable=0;points=[];autosize=1;strokeColor=none;fillColor=none;" vertex="1" parent="WIyWlLk6GJQsqaUBKTNV-1">
          <mxGeometry x="394" y="620" width="40" height="30" as="geometry" />
        </mxCell>
        <mxCell id="G2BBgnJq1ysjmW8_Zyoc-45" value="" style="edgeStyle=orthogonalEdgeStyle;rounded=0;orthogonalLoop=1;jettySize=auto;html=1;" edge="1" parent="WIyWlLk6GJQsqaUBKTNV-1" source="G2BBgnJq1ysjmW8_Zyoc-42" target="G2BBgnJq1ysjmW8_Zyoc-44">
          <mxGeometry relative="1" as="geometry" />
        </mxCell>
        <mxCell id="G2BBgnJq1ysjmW8_Zyoc-42" value="Compute cost metric" style="rounded=1;whiteSpace=wrap;html=1;fillColor=none;" vertex="1" parent="WIyWlLk6GJQsqaUBKTNV-1">
          <mxGeometry x="315" y="250" width="150" height="40" as="geometry" />
        </mxCell>
        <mxCell id="G2BBgnJq1ysjmW8_Zyoc-47" style="edgeStyle=orthogonalEdgeStyle;rounded=0;orthogonalLoop=1;jettySize=auto;html=1;" edge="1" parent="WIyWlLk6GJQsqaUBKTNV-1" source="G2BBgnJq1ysjmW8_Zyoc-44">
          <mxGeometry relative="1" as="geometry">
            <mxPoint x="390" y="420" as="targetPoint" />
          </mxGeometry>
        </mxCell>
        <mxCell id="G2BBgnJq1ysjmW8_Zyoc-50" style="edgeStyle=orthogonalEdgeStyle;rounded=0;orthogonalLoop=1;jettySize=auto;html=1;entryX=0.5;entryY=0;entryDx=0;entryDy=0;" edge="1" parent="WIyWlLk6GJQsqaUBKTNV-1" source="G2BBgnJq1ysjmW8_Zyoc-44" target="G2BBgnJq1ysjmW8_Zyoc-49">
          <mxGeometry relative="1" as="geometry" />
        </mxCell>
        <mxCell id="G2BBgnJq1ysjmW8_Zyoc-44" value="&lt;div&gt;New&lt;/div&gt;&lt;div&gt;max cost&lt;/div&gt;&lt;div&gt;metric?&lt;/div&gt;" style="rhombus;whiteSpace=wrap;html=1;fillColor=none;" vertex="1" parent="WIyWlLk6GJQsqaUBKTNV-1">
          <mxGeometry x="345" y="310" width="90" height="90" as="geometry" />
        </mxCell>
        <mxCell id="G2BBgnJq1ysjmW8_Zyoc-48" value="No" style="text;html=1;align=center;verticalAlign=middle;resizable=0;points=[];autosize=1;strokeColor=none;fillColor=none;" vertex="1" parent="WIyWlLk6GJQsqaUBKTNV-1">
          <mxGeometry x="385.85" y="391" width="40" height="30" as="geometry" />
        </mxCell>
        <mxCell id="G2BBgnJq1ysjmW8_Zyoc-52" style="edgeStyle=orthogonalEdgeStyle;rounded=0;orthogonalLoop=1;jettySize=auto;html=1;entryX=0;entryY=0.5;entryDx=0;entryDy=0;" edge="1" parent="WIyWlLk6GJQsqaUBKTNV-1" source="G2BBgnJq1ysjmW8_Zyoc-49" target="G2BBgnJq1ysjmW8_Zyoc-18">
          <mxGeometry relative="1" as="geometry">
            <Array as="points">
              <mxPoint x="215" y="466" />
            </Array>
          </mxGeometry>
        </mxCell>
        <mxCell id="G2BBgnJq1ysjmW8_Zyoc-49" value="Save max metric and associated node" style="rounded=1;whiteSpace=wrap;html=1;fillColor=none;" vertex="1" parent="WIyWlLk6GJQsqaUBKTNV-1">
          <mxGeometry x="140" y="386" width="150" height="40" as="geometry" />
        </mxCell>
        <mxCell id="G2BBgnJq1ysjmW8_Zyoc-51" value="Yes" style="text;html=1;align=center;verticalAlign=middle;resizable=0;points=[];autosize=1;strokeColor=none;fillColor=none;" vertex="1" parent="WIyWlLk6GJQsqaUBKTNV-1">
          <mxGeometry x="306" y="330" width="40" height="30" as="geometry" />
        </mxCell>
        <mxCell id="G2BBgnJq1ysjmW8_Zyoc-56" style="edgeStyle=orthogonalEdgeStyle;rounded=0;orthogonalLoop=1;jettySize=auto;html=1;entryX=0.5;entryY=0;entryDx=0;entryDy=0;" edge="1" parent="WIyWlLk6GJQsqaUBKTNV-1" source="G2BBgnJq1ysjmW8_Zyoc-53" target="G2BBgnJq1ysjmW8_Zyoc-55">
          <mxGeometry relative="1" as="geometry" />
        </mxCell>
        <mxCell id="G2BBgnJq1ysjmW8_Zyoc-53" value="Removal procedure for customer that owns the node with max cost metric" style="rounded=1;whiteSpace=wrap;html=1;fillColor=none;" vertex="1" parent="WIyWlLk6GJQsqaUBKTNV-1">
          <mxGeometry x="282.5" y="670" width="215" height="40" as="geometry" />
        </mxCell>
        <mxCell id="G2BBgnJq1ysjmW8_Zyoc-55" value="Remove empty routes and return" style="rounded=1;whiteSpace=wrap;html=1;fillColor=none;" vertex="1" parent="WIyWlLk6GJQsqaUBKTNV-1">
          <mxGeometry x="282.63" y="740" width="215" height="40" as="geometry" />
        </mxCell>
      </root>
    </mxGraphModel>
  </diagram>
</mxfile>
